<?xml version="1.0" encoding="UTF-8"?>
<svg width="148px" height="40px" viewBox="0 0 148 40" version="1.1" xmlns="http://www.w3.org/2000/svg" xmlns:xlink="http://www.w3.org/1999/xlink">
    <!-- Generator: Sketch 63.1 (92452) - https://sketch.com -->
    <title>Group 10</title>
    <desc>Created with Sketch.</desc>
    <defs>
        <polygon id="path-1" points="0 0.263304274 13.951554 0.263304274 13.951554 21.545653 0 21.545653"></polygon>
        <polygon id="path-3" points="0.16089698 0.262973333 17.1569968 0.262973333 17.1569968 21.5457357 0.16089698 21.5457357"></polygon>
        <polygon id="path-5" points="0.987023753 1.07875 17.3119413 1.07875 17.3119413 16.136875 0.987023753 16.136875"></polygon>
        <polygon id="path-7" points="1.20549855 0.6844736 14.09875 0.6844736 14.09875 18.8895909 1.20549855 18.8895909"></polygon>
        <polygon id="path-9" points="0 0.733578896 12.3645728 0.733578896 12.3645728 18.2787562 0 18.2787562"></polygon>
    </defs>
    <g id="Page-1" stroke="none" stroke-width="1" fill="none" fill-rule="evenodd">
        <g id="Check-out-Bag-Copy-2" transform="translate(-43.000000, -16.000000)">
            <g id="Group-2">
                <g id="Group-10" transform="translate(43.000000, 15.000000)">
                    <g id="Group-27" transform="translate(51.000000, 9.000000)">
                        <g id="Group-26">
                            <g id="Group-14">
                                <mask id="mask-2" fill="white">
                                    <use xlink:href="#path-1"></use>
                                </mask>
                                <g id="Clip-13"></g>
                                <path d="M6.08866935,21.0169761 C6.97611477,21.0169761 7.72634813,20.8622615 8.33979162,20.5515915 C8.95281291,20.240094 9.4488873,19.8206274 9.82970356,19.2931915 C10.2100976,18.7645145 10.4798777,18.1593077 10.6381993,17.4759162 C10.7965209,16.7916974 10.876315,16.0772803 10.876315,15.3314239 C10.876315,14.0883299 10.7065942,13.1261214 10.3692636,12.4427299 C10.0302443,11.7585111 9.56034572,11.251759 8.9578792,10.9204051 C8.35541268,10.5890513 7.65246471,10.3867641 6.84945748,10.3139573 C6.04560587,10.2423915 5.17926999,10.205988 4.24918327,10.205988 L4.24918327,21.0169761 L6.08866935,21.0169761 Z M4.24918327,0.76054188 L4.24918327,9.70875043 C6.23601399,9.60491795 7.66808578,9.12298632 8.54582081,8.26419658 C9.42271146,7.40457949 9.86136789,6.20823077 9.86136789,4.6755641 C9.86136789,3.90902393 9.7765075,3.27237778 9.6080533,2.76479829 C9.43875472,2.25680513 9.19008424,1.85926325 8.86246404,1.56844957 C8.53484385,1.27887692 8.13882871,1.07121197 7.67357426,0.947523077 C7.208742,0.823006838 6.67973671,0.76054188 6.08866935,0.76054188 L4.24918327,0.76054188 Z M-0.000168876389,0.690630769 C-0.000168876389,0.577697436 0.0424724119,0.473864957 0.127332798,0.380374359 C0.211348801,0.286883761 0.40175693,0.263304274 0.571477702,0.263304274 L6.08866935,0.263304274 C7.22985155,0.263304274 8.23339949,0.321632479 9.10057975,0.434565812 C9.96691563,0.548740171 10.6964616,0.76054188 11.2883734,1.07121197 C11.8798629,1.3827094 12.3290741,1.82823761 12.636007,2.40779658 C12.9420954,2.98694188 13.0961951,3.7427265 13.0961951,4.6755641 C13.0961951,6.10439829 12.6723154,7.22256239 11.8275112,8.03047009 C10.9814405,8.83837778 9.79846143,9.41917778 8.27604078,9.77080171 C9.98844737,10.060788 11.3618346,10.6866786 12.3978913,11.6505419 C13.4339479,12.6131641 13.951554,13.8405385 13.951554,15.3314239 C13.951554,16.5124667 13.7721229,17.5019778 13.4128384,18.2983026 C13.0531316,19.0971094 12.530037,19.7333419 11.8431323,20.2090684 C11.1558054,20.6856222 10.3262001,21.028559 9.35431653,21.2349829 C8.38201071,21.4414068 7.29318019,21.545653 6.08866935,21.545653 L0.571477702,21.545653 C0.40175693,21.545653 0.275099638,21.4989077 0.190661444,21.4050034 C0.106223249,21.3131675 0.0635819606,21.2089214 0.0635819606,21.094747 C0.0635819606,20.9818137 0.106223249,20.8779812 0.190661444,20.7844906 C0.275099638,20.691 0.40175693,20.6442547 0.571477702,20.6442547 C0.740354091,20.6442547 0.867011383,20.5466274 0.951871769,20.3493043 C1.03588777,20.1532222 1.09415013,19.9141179 1.12623664,19.6348872 C1.15790096,19.3556564 1.17394422,19.059465 1.17394422,18.7492085 L1.17394422,17.9408872 L1.17394422,3.1218 C1.17394422,2.66592991 1.13679142,2.22577949 1.0624858,1.80093504 C0.988180193,1.37733162 0.775818133,1.08114017 0.56641141,0.940904274 L-0.000168876389,0.690630769 Z" id="Fill-12" fill="#FFFFFF" mask="url(#mask-2)"></path>
                            </g>
                            <path d="M18.8034994,11.851919 C20.0291198,11.8937002 21.0385784,12.0595839 21.8310308,12.3495703 C22.6239055,12.6391429 23.2318605,12.9299566 23.6548958,13.2195292 C23.4007369,12.4534027 23.1415116,11.6814848 22.8776423,10.9050164 C22.6133507,10.1281344 22.3596139,9.38765573 22.1168541,8.68399419 C21.8736721,7.97991897 21.6570882,7.32672581 21.46668,6.72648308 C21.2762719,6.12499932 21.1179503,5.6079053 20.9917152,5.17271897 L18.8034994,11.851919 Z M29.4887307,20.6751976 C29.6162324,20.6751976 29.7213579,20.7219429 29.8062183,20.8154335 C29.8906565,20.9093378 29.9328756,21.0077925 29.9328756,21.1103839 C29.9328756,21.4011976 29.7842644,21.5455703 29.4887307,21.5455703 L25.3035516,21.5455703 C25.0287053,21.5455703 24.8914932,21.4011976 24.8914932,21.1103839 C24.8914932,21.0077925 24.9332901,20.9093378 25.0181505,20.8154335 C25.1021665,20.7219429 25.1980039,20.6751976 25.3035516,20.6751976 C25.5568662,20.6751976 25.6843679,20.5105549 25.6843679,20.179201 C25.704633,20.0129036 25.6569254,19.6972694 25.5408229,19.2310574 C25.4251426,18.7644318 25.2604881,18.1906643 25.0498148,17.5072728 C24.7749685,17.0096215 24.4359491,16.4602609 24.0352899,15.8600181 C23.6333641,15.258948 23.1681096,14.6951087 22.6399487,14.1664318 C22.1113656,13.6389959 21.5143876,13.1885036 20.8481702,12.8157822 C20.1827973,12.4430609 19.4583176,12.2349822 18.6764199,12.1936147 L16.3936333,19.2153378 C16.266976,19.5061515 16.2454443,19.7646985 16.3298824,19.9922198 C16.3725237,20.179201 16.5148021,20.3492215 16.7579841,20.5051771 C17.0007439,20.6598916 17.396759,20.7376626 17.9472961,20.7376626 L17.9472961,20.7686882 C18.2217202,20.7686882 18.3593545,20.8936181 18.3593545,21.1418232 C18.3593545,21.4102985 18.2217202,21.5455703 17.9472961,21.5455703 L14.0470959,21.5455703 C13.7722495,21.5455703 13.6350375,21.4102985 13.6350375,21.1418232 C13.6350375,20.8936181 13.7722495,20.7686882 14.0470959,20.7686882 L14.0470959,20.7376626 C14.32152,20.7376626 14.5541472,20.6909173 14.7445553,20.5974267 C14.9345413,20.5051771 15.0937073,20.3806609 15.2203646,20.2247053 C15.3470219,20.0699908 15.442437,19.9036933 15.5057657,19.7287087 C15.5690943,19.5516557 15.632423,19.3816352 15.6961738,19.2153378 L20.6421411,3.93003863 C21.0651764,2.41805573 21.3818196,1.34125915 21.5933373,0.698407863 C21.6355564,0.59581641 21.6933966,0.486606154 21.7681244,0.372431795 C21.8420078,0.259498462 21.9952631,0.201997607 22.2274682,0.201997607 C22.4389858,0.201997607 22.5761979,0.259498462 22.6399487,0.372431795 C22.7036996,0.486606154 22.7560513,0.58547453 22.7982704,0.666968547 C22.925772,1.06078735 23.0997147,1.63083179 23.3222094,2.37627453 C23.5442818,3.12171726 23.7971742,3.97678393 24.0829975,4.93940615 C24.3679764,5.90285573 24.6740649,6.93828479 25.0021072,8.04610701 C25.3297274,9.15434291 25.6624139,10.2634062 26.0010111,11.3712284 C26.3391861,12.4794643 26.6672284,13.5508831 26.9838717,14.5858985 C27.3009371,15.6225685 27.5863382,16.5487874 27.8404972,17.3670369 C28.0933895,18.1852865 28.3103957,18.8583361 28.4898269,19.3865993 C28.6696802,19.9140352 28.7916934,20.2205685 28.8545999,20.3024762 C29.0445858,20.5519224 29.2244392,20.6751976 29.3937377,20.6751976 L29.4887307,20.6751976 Z" id="Fill-15" fill="#FFFFFF"></path>
                            <path d="M34.9737092,9.73990017 C36.9926264,9.63606769 38.5382676,9.15413607 39.611477,8.29534632 C40.6838421,7.43572923 41.2200246,6.23938051 41.2200246,4.70671385 C41.2200246,3.94017368 41.0988558,3.3039412 40.8573626,2.79594803 C40.6154472,2.28795487 40.2941598,1.88917197 39.8951894,1.59959932 C39.4953745,1.31002667 39.0275869,1.10236171 38.4914044,0.978672821 C37.9552218,0.854156581 37.3924413,0.791691624 36.8034849,0.791691624 L34.9737092,0.791691624 L34.9737092,9.73990017 Z M46.3889087,20.6439651 C46.5569407,20.6439651 46.6844424,20.6936062 46.7693028,20.7895788 C46.8524744,20.8855515 46.8951157,20.9881429 46.8951157,21.0948711 C46.8951157,21.2024267 46.8486747,21.3041908 46.7532595,21.4014044 C46.6578444,21.4973771 46.5358312,21.5457771 46.3889087,21.5457771 L44.6448378,21.5457771 C44.094723,21.5457771 43.5842941,21.492413 43.1135512,21.3844438 C42.642386,21.2781292 42.2341274,21.0183412 41.8896195,20.6075617 C41.5442673,20.1971959 41.2723763,19.5986079 41.0743688,18.8113839 C40.8755168,18.02416 40.7767241,16.9473634 40.7767241,15.5809942 C40.7767241,14.5041976 40.7129733,13.6131412 40.586316,12.907825 C40.4592365,12.2049908 40.2477188,11.650666 39.9521851,11.2465053 C39.6558071,10.8427583 39.2593698,10.5635275 38.7628732,10.407572 C38.2659544,10.2516164 37.6377342,10.1750865 36.8765239,10.1750865 L34.9737092,10.1750865 L34.9737092,18.7178933 C34.9948187,19.1737634 35.0421041,19.603572 35.1168319,20.0077326 C35.1902932,20.4114797 35.3541033,20.6129395 35.60784,20.6129395 C35.7767164,20.6129395 35.9037959,20.6621668 35.9882341,20.7585532 C36.0726723,20.8545258 36.1148914,20.962495 36.1148914,21.0791515 C36.1148914,21.1974626 36.0680282,21.3054318 35.972613,21.4014044 C35.8776201,21.4973771 35.7560291,21.5457771 35.60784,21.5457771 L31.2955814,21.5457771 C31.1258607,21.5457771 31.0046918,21.4973771 30.9312306,21.4014044 C30.856925,21.3054318 30.8206166,21.1974626 30.8206166,21.0791515 C30.8206166,20.962495 30.856925,20.8545258 30.9312306,20.7585532 C31.0046918,20.6621668 31.1258607,20.6129395 31.2955814,20.6129395 C31.4433483,20.6129395 31.5539623,20.5467515 31.6282679,20.4114797 C31.7025735,20.2778626 31.7604137,20.1024643 31.8026328,19.8840438 C31.8452741,19.6672779 31.8714499,19.4294147 31.8824269,19.1712814 C31.8929817,18.9127344 31.8980479,18.6595651 31.8980479,18.41136 L31.8980479,3.11820103 C31.8980479,2.66233094 31.8608951,2.22300786 31.7874339,1.79981812 C31.7122839,1.37497368 31.5497404,1.16317197 31.2955814,1.16317197 C31.1258607,1.16317197 30.9992034,1.11642667 30.9151874,1.02417709 C30.830327,0.930686496 30.7885301,0.826854017 30.7885301,0.713920684 C30.7885301,0.59933265 30.830327,0.496741197 30.9151874,0.403250598 C30.9992034,0.30976 31.1258607,0.263014701 31.2955814,0.263014701 L36.8005295,0.263014701 C37.9391786,0.263014701 38.9718577,0.321342906 39.8994113,0.434689915 C40.8278092,0.547623248 41.6291277,0.760665983 42.3037889,1.07092239 C42.97845,1.38035145 43.5002781,1.82587966 43.869273,2.40502496 C44.2378457,2.98292923 44.4227654,3.73912752 44.4227654,4.6690694 C44.4227654,5.90926769 44.0588367,6.91243009 43.3309795,7.67731556 C42.6039667,8.44344205 41.607596,9.03210188 40.343134,9.44660444 C41.0376381,9.55043692 41.596619,9.73617709 42.0179656,10.005066 C42.43889,10.2739549 42.7711543,10.6553634 43.0134919,11.1517737 C43.2554073,11.6477703 43.4133067,12.2583549 43.4876124,12.9818728 C43.5610736,13.7066318 43.5982264,14.5757634 43.5982264,15.588854 C43.5982264,16.7463173 43.6885753,17.6617805 43.8680064,18.3331754 C44.0474376,19.006225 44.2749985,19.5129771 44.5494227,19.8542591 C44.8246912,20.1947138 45.1252911,20.4114797 45.4533335,20.5049703 C45.7801093,20.5988745 46.0916863,20.6439651 46.3889087,20.6439651 L46.3889087,20.6439651 Z" id="Fill-17" fill="#FFFFFF"></path>
                            <path d="M52.8564523,9.73990017 C54.8753695,9.63606769 56.4210106,9.15413607 57.4933757,8.29534632 C58.5657408,7.43572923 59.1027677,6.23938051 59.1027677,4.70671385 C59.1027677,3.94017368 58.9824433,3.3039412 58.7396835,2.79594803 C58.4981902,2.28795487 58.1777473,1.88917197 57.7770881,1.59959932 C57.3781176,1.31002667 56.91033,1.10236171 56.3745696,0.978672821 C55.8379649,0.854156581 55.2747622,0.791691624 54.6858057,0.791691624 L52.8564523,0.791691624 L52.8564523,9.73990017 Z M64.2716518,20.6439651 C64.440106,20.6439651 64.5671855,20.6936062 64.6516237,20.7895788 C64.7369063,20.8855515 64.7791254,20.9881429 64.7791254,21.0948711 C64.7791254,21.2024267 64.7314178,21.3041908 64.6360026,21.4014044 C64.5405875,21.4973771 64.4189965,21.5457771 64.2716518,21.5457771 L62.5267365,21.5457771 C61.9778882,21.5457771 61.4674594,21.492413 60.995872,21.3844438 C60.5251291,21.2781292 60.1168704,21.0183412 59.7723626,20.6075617 C59.4274326,20.1971959 59.1546972,19.5986079 58.9571118,18.8113839 C58.7582599,18.02416 58.6586228,16.9473634 58.6586228,15.5809942 C58.6586228,14.5041976 58.5965607,13.6131412 58.4690591,12.907825 C58.3419796,12.2049908 58.1313063,11.650666 57.8340838,11.2465053 C57.5385502,10.8427583 57.1421128,10.5635275 56.6451941,10.407572 C56.1495419,10.2516164 55.5200551,10.1750865 54.7588448,10.1750865 L52.8564523,10.1750865 L52.8564523,18.7178933 C52.877984,19.1737634 52.9252694,19.603572 52.999575,20.0077326 C53.072614,20.4114797 53.2368463,20.6129395 53.4914275,20.6129395 C53.6598817,20.6129395 53.7869612,20.6621668 53.8718215,20.7585532 C53.9558376,20.8545258 53.9976345,20.962495 53.9976345,21.0791515 C53.9976345,21.1974626 53.9503491,21.3054318 53.8557783,21.4014044 C53.7607853,21.4973771 53.6387721,21.5457771 53.4914275,21.5457771 L49.1791689,21.5457771 C49.0094481,21.5457771 48.8878571,21.4973771 48.8135515,21.4014044 C48.7388237,21.3054318 48.7033596,21.1974626 48.7033596,21.0791515 C48.7033596,20.962495 48.7388237,20.8545258 48.8135515,20.7585532 C48.8878571,20.6621668 49.0094481,20.6129395 49.1791689,20.6129395 C49.3265135,20.6129395 49.4375498,20.5467515 49.5118554,20.4114797 C49.5848944,20.2778626 49.6431568,20.1024643 49.6853759,19.8840438 C49.7280171,19.6672779 49.754193,19.4294147 49.7651699,19.1712814 C49.7757247,18.9127344 49.7812132,18.6595651 49.7812132,18.41136 L49.7812132,3.11820103 C49.7812132,2.66233094 49.7440604,2.22300786 49.6697548,1.79981812 C49.5954492,1.37497368 49.4324835,1.16317197 49.1791689,1.16317197 C49.0094481,1.16317197 48.8823686,1.11642667 48.7987748,1.02417709 C48.7134922,0.930686496 48.6716953,0.826854017 48.6716953,0.713920684 C48.6716953,0.59933265 48.7134922,0.496741197 48.7987748,0.403250598 C48.8823686,0.30976 49.0094481,0.263014701 49.1791689,0.263014701 L54.6832726,0.263014701 C55.8219217,0.263014701 56.8546008,0.321342906 57.7825765,0.434689915 C58.7105523,0.547623248 59.5127151,0.760665983 60.1869541,1.07092239 C60.8620375,1.38035145 61.3830212,1.82587966 61.7528605,2.40502496 C62.1214332,2.98292923 62.3055084,3.73912752 62.3055084,4.6690694 C62.3055084,5.90926769 61.9411576,6.91243009 61.214567,7.67731556 C60.4867097,8.44344205 59.4899168,9.03210188 58.2254549,9.44660444 C58.9212256,9.55043692 59.4797843,9.73617709 59.9011308,10.005066 C60.3224774,10.2739549 60.6538973,10.6553634 60.8966572,11.1517737 C61.1389948,11.6477703 61.2968942,12.2583549 61.369511,12.9818728 C61.4442389,13.7066318 61.4813917,14.5757634 61.4813917,15.588854 C61.4813917,16.7463173 61.5713183,17.6617805 61.7499051,18.3331754 C61.9306029,19.006225 62.1568972,19.5129771 62.4330101,19.8542591 C62.7074342,20.1947138 63.0084564,20.4114797 63.3356544,20.5049703 C63.6632746,20.5988745 63.9761181,20.6439651 64.2716518,20.6439651 L64.2716518,20.6439651 Z" id="Fill-19" fill="#FFFFFF"></path>
                            <path d="M71.8501064,21.2662568 C72.589785,21.2662568 73.2023841,21.0635559 73.6887481,20.6598089 C74.1755343,20.2556482 74.5559284,19.6351354 74.8303525,18.7957884 C75.1047767,17.956855 75.295607,16.8904003 75.4015769,15.5955969 C75.5062803,14.3016209 75.5594763,12.7532345 75.5594763,10.951679 C75.5594763,9.16956615 75.5062803,7.63193538 75.4015769,6.33795932 C75.295607,5.0431559 75.1047767,3.9767012 74.8303525,3.13776786 C74.5559284,2.29842085 74.1755343,1.68287214 73.6887481,1.28905333 C73.2023841,0.895648205 72.589785,0.698325128 71.8501064,0.698325128 C70.4543431,0.698325128 69.4241971,1.5165747 68.7588241,3.15307385 C68.0921846,4.78957299 67.7594981,7.38910803 67.7594981,10.951679 C67.7594981,14.5353474 68.0921846,17.1489474 68.7588241,18.7957884 C69.4241971,20.4426294 70.4543431,21.2662568 71.8501064,21.2662568 M71.8501064,0.0773986325 C72.6746454,0.0773986325 73.4928515,0.274721709 74.3076801,0.667299487 C75.1203977,1.06070462 75.8457218,1.69321402 76.4794305,2.56234564 C77.1131391,3.43230462 77.6311674,4.5558465 78.0330932,5.93421231 C78.4345969,7.31092342 78.6347154,8.98382598 78.6347154,10.951679 C78.6347154,12.9389747 78.4345969,14.6222191 78.0330932,15.9993439 C77.6311674,17.3772961 77.1131391,18.5008379 76.4794305,19.3712106 C75.8457218,20.2403422 75.1203977,20.8728516 74.3076801,21.2662568 C73.4928515,21.6584209 72.6746454,21.8561576 71.8501064,21.8561576 C71.0893183,21.8561576 70.2858889,21.6584209 69.4402404,21.2662568 C68.5945918,20.8728516 67.8173383,20.2403422 67.1097462,19.3712106 C66.4004653,18.5008379 65.8199528,17.3772961 65.3652531,15.9993439 C64.9105534,14.6222191 64.6838368,12.9389747 64.6838368,10.951679 C64.6838368,8.98382598 64.9105534,7.31092342 65.3652531,5.93421231 C65.8199528,4.5558465 66.4004653,3.43230462 67.1097462,2.56234564 C67.8173383,1.69321402 68.5945918,1.06070462 69.4402404,0.667299487 C70.2858889,0.274721709 71.0893183,0.0773986325 71.8501064,0.0773986325" id="Fill-21" fill="#FFFFFF"></path>
                            <g id="Group-25" transform="translate(78.949712, 0.000000)">
                                <mask id="mask-4" fill="white">
                                    <use xlink:href="#path-3"></use>
                                </mask>
                                <g id="Clip-24"></g>
                                <path d="M17.0139163,0.408587009 C17.1093314,0.505800684 17.157039,0.607151111 17.157039,0.713879316 C17.157039,0.843773333 17.1093314,0.950501538 17.0139163,1.03613231 C16.9197677,1.12176308 16.818864,1.1647853 16.7128941,1.1647853 C16.3747191,1.1647853 16.0990284,1.21111692 15.8883551,1.3050212 C15.6776818,1.39727077 15.5130274,1.51144513 15.3965026,1.64630325 C15.2812445,1.78157504 15.2018726,1.9358759 15.1592313,2.11292889 C15.1170122,2.2879135 15.0954805,2.45958872 15.0954805,2.62423145 L15.0954805,21.2350656 C15.0954805,21.4414896 14.9895105,21.5457357 14.7788373,21.5457357 C14.7155086,21.5457357 14.641203,21.5027135 14.5576092,21.4170827 C14.5137013,21.3740605 14.4833036,21.3206964 14.4617718,21.2561631 L2.82576641,4.08450496 L2.82576641,19.1840639 C2.82576641,19.3503614 2.84518719,19.5220366 2.88782848,19.6970212 C2.93046977,19.8724195 3.00984167,20.0337528 3.12636638,20.1789528 C3.24204671,20.3233255 3.40627899,20.4428776 3.61821886,20.5363682 C3.82931435,20.6286178 4.10331629,20.6753631 4.44149126,20.6753631 C4.54788339,20.6753631 4.64836484,20.7196263 4.74378,20.8052571 C4.83792859,20.8908879 4.88521397,20.9976161 4.88521397,21.1262691 C4.88521397,21.2338246 4.83792859,21.331452 4.74378,21.4170827 C4.64836484,21.5027135 4.54788339,21.5457357 4.44149126,21.5457357 L0.605041884,21.5457357 C0.309508203,21.5457357 0.16089698,21.3959853 0.16089698,21.0948297 C0.16089698,20.7949152 0.309508203,20.6443374 0.605041884,20.6443374 C1.26028228,20.6443374 1.68796173,20.4842451 1.88976902,20.1636468 C2.08946535,19.8438759 2.19079118,19.5178998 2.19079118,19.1869597 L2.19079118,3.02591009 C2.19079118,2.90098017 2.16925944,2.73633744 2.12661815,2.52949983 C2.08482125,2.3230759 2.01727069,2.11665197 1.92143334,1.90857333 C1.82601818,1.7021494 1.6989387,1.52716479 1.54103927,1.38279214 C1.38229547,1.23717846 1.1657115,1.1647853 0.890442982,1.1647853 C0.784050857,1.1647853 0.684413787,1.12176308 0.589420818,1.03613231 C0.493583467,0.950501538 0.447564651,0.843773333 0.447564651,0.713879316 C0.447564651,0.607151111 0.493583467,0.505800684 0.589420818,0.408587009 C0.684413787,0.312614359 0.784050857,0.262973333 0.890442982,0.262973333 L3.58613235,0.262973333 C3.88208822,0.262973333 4.13540281,0.312614359 4.34734267,0.408587009 C4.55801597,0.505800684 4.72773674,0.607151111 4.85354965,0.713879316 C5.00216087,0.843773333 5.12839598,0.993110085 5.23436591,1.1647853 L14.4617718,14.8342691 L14.4617718,2.62423145 C14.4617718,2.29329128 14.3612904,1.96731521 14.1611719,1.64630325 C13.9597868,1.32570496 13.5312629,1.1647853 12.8764447,1.1647853 C12.748943,1.1647853 12.6429731,1.1163853 12.5598015,1.02041265 C12.4749411,0.923198974 12.4322998,0.821848547 12.4322998,0.713879316 C12.4322998,0.413964786 12.5796445,0.262973333 12.8764447,0.262973333 L16.7128941,0.262973333 C16.818864,0.262973333 16.9197677,0.312614359 17.0139163,0.408587009" id="Fill-23" fill="#FFFFFF" mask="url(#mask-4)"></path>
                            </g>
                        </g>
                    </g>
                    <g id="Group-9">
                        <g id="Group-46">
                            <path d="M17.211375,16.251375 C16.288875,15.046375 14.403875,12.452625 12.677625,12.597625 C11.346375,12.710125 10.753875,13.987625 10.390125,15.083875 C9.870125,16.656375 9.048875,18.393875 8.918875,20.045125 C8.855125,20.860125 8.811375,22.122625 9.191375,22.788875 C9.718875,23.710125 10.415125,23.550125 11.243875,23.308875 C12.685125,22.890125 14.013875,22.271375 15.505125,21.958875 C15.551375,21.950125 15.467625,21.342625 15.505125,21.333875 C13.943875,21.661375 12.523875,22.432625 11.008875,22.792625 C9.156375,23.231375 9.007625,21.626375 8.920125,20.056375 C8.920125,20.261375 8.920125,20.465125 8.918875,20.670125 C9.093875,19.003875 9.863875,17.302625 10.390125,15.708875 C10.787625,14.511375 11.476375,13.175125 12.942625,13.240125 C14.573875,13.311375 16.305125,15.692625 17.211375,16.876375 C17.112625,16.746375 17.313875,16.385125 17.211375,16.251375" id="Fill-3" fill="#FEFEFE"></path>
                            <path d="M14.63325,13.246 C14.58325,12.70225 14.537,12.15725 14.487,11.6135 L14.4895,12.196 C14.532,10.1635 19.42575,10.7735 20.72325,10.791 C21.66575,10.8035 23.3995,10.491 24.22575,10.89475 C25.18325,11.3635 25.1245,12.53475 25.1445,13.456 L25.147,12.8735 C25.13325,13.01975 25.1195,13.166 25.10575,13.311 C25.087,13.5185 25.12575,13.72975 25.10575,13.936 C25.1545,13.41225 25.1645,12.8935 25.13575,12.36725 C25.10325,11.75975 25.11575,10.94475 24.61825,10.506 C23.70325,9.69975 21.00575,10.16475 19.90575,10.15475 C18.34075,10.141 14.72825,9.6035 14.48575,11.681 C14.402,12.39475 14.5695,13.176 14.63325,13.871 C14.6145,13.66475 14.652,13.4535 14.63325,13.246" id="Fill-5" fill="#FEFEFE"></path>
                            <path d="M23.816625,15.464625 C24.807875,14.368375 26.499125,12.339625 27.956625,13.878375 C28.669125,14.633375 28.789125,15.824625 29.092875,16.765875 C29.675375,18.577125 30.140375,19.809625 30.169125,21.823375 L30.170375,21.242125 C29.912875,22.479625 29.411625,22.910875 28.274125,23.333375 C28.201625,23.360875 28.337875,23.935875 28.274125,23.958375 C30.370375,23.178375 30.286625,21.497125 30.086625,19.598375 C29.967875,18.474625 29.571625,17.545875 29.209125,16.490875 C28.854125,15.457125 28.742875,14.085875 27.956625,13.253375 C26.499125,11.714625 24.806625,13.744625 23.816625,14.839625 C23.711625,14.955875 23.917875,15.352125 23.816625,15.464625" id="Fill-7" fill="#FEFEFE"></path>
                            <path d="M19.54725,27.046 C19.7435,28.041 19.7185,29.06725 19.8935,30.0435 C20.48975,33.3735 26.09975,29.076 27.25225,28.0285 C28.11975,27.23975 29.28475,26.0335 29.13975,24.74475 C28.97225,23.2385 26.1385,22.2635 24.936,21.5585 C25.0235,21.60975 24.841,22.1285 24.936,22.1835 C26.1385,22.8885 28.9535,23.8385 29.1385,25.3435 L29.1385,24.7185 C28.511,26.7285 26.53725,28.091 24.85725,29.1785 C23.74475,29.89725 20.22725,31.94975 19.89475,29.42975 C19.89475,29.63475 19.89475,29.83975 19.89475,30.0435 C19.95725,28.811 19.786,27.6385 19.54725,26.421 C19.586,26.621 19.50725,26.84475 19.54725,27.046" id="Fill-9" fill="#FEFEFE"></path>
                            <path d="M20.285125,30.7765 C22.445125,30.57525 23.297625,28.34775 25.140125,27.5015 C25.957625,27.12525 26.978875,27.0065 27.612625,26.30025 C28.170125,25.679 27.931375,24.839 28.532625,24.2715 C28.638875,24.1715 28.431375,23.74275 28.532625,23.6465 C27.927625,24.21775 28.171375,25.0515 27.612625,25.67525 C26.981375,26.379 25.960125,26.50775 25.140125,26.8765 C23.280125,27.7115 22.458875,29.949 20.285125,30.1515 C20.261375,30.154 20.300125,30.77525 20.285125,30.7765" id="Fill-11" fill="#FEFEFE"></path>
                            <path d="M11.922125,22.45 C11.172125,22.9625 10.102125,23.565 10.045875,24.545 C9.974625,25.80125 11.144625,27.0225 11.768375,28.03375 C12.383375,29.02875 12.742125,29.33 13.825875,29.7575 C14.770875,30.13 15.645875,30.92875 16.607125,31.2025 C18.603375,31.7725 19.224625,28.20875 19.565875,26.7975 C19.614625,26.59875 19.519625,26.3675 19.565875,26.1725 C19.287125,27.325 18.882125,29.07625 18.227125,30.06875 C17.449625,31.245 16.265875,30.39 15.348375,29.855 C14.380875,29.2925 13.067125,29.12875 12.310875,28.2775 C11.468375,27.33125 10.287125,25.47375 10.048375,24.2325 L10.048375,24.8575 C10.355875,24.10875 11.263375,23.525 11.922125,23.075 C12.022125,23.00625 11.828375,22.51375 11.922125,22.45" id="Fill-13" fill="#FEFEFE"></path>
                            <path d="M11.613875,23.67075 C11.620125,23.762 11.626375,23.85325 11.632625,23.94575 C11.632625,23.74075 11.632625,23.537 11.633875,23.332 C11.431375,23.9745 10.892625,24.3045 10.867625,25.007 C10.848875,25.53825 11.020125,25.88325 11.448875,26.24575 C11.960125,26.67825 12.580125,26.96575 13.086375,27.42075 C13.561375,27.847 13.933875,28.3545 14.365125,28.82075 C14.886375,29.38575 15.582625,29.737 16.193875,30.197 C16.825125,30.6745 17.327625,31.0245 18.137625,30.79325 C18.197625,30.777 18.087625,30.18325 18.137625,30.16825 C17.245125,30.422 16.695125,29.92325 16.010125,29.42325 C15.312625,28.912 14.666375,28.54825 14.098875,27.8795 C13.587625,27.27825 13.058875,26.7195 12.416375,26.2545 C11.788875,25.80075 11.122625,25.56325 10.871375,24.77825 L10.871375,25.40325 C10.945125,24.77575 11.533875,24.467 11.636375,23.83325 C11.673875,23.5995 11.631375,23.30075 11.615125,23.06825 C11.625125,23.217 11.601375,23.482 11.613875,23.67075" id="Fill-15" fill="#FEFEFE"></path>
                            <path d="M10.0605,22.829125 C9.938,22.261625 9.93425,21.640375 9.87175,21.064125 C9.873,21.269125 9.873,21.474125 9.873,21.677875 C9.92925,20.724125 10.56425,19.965375 10.86175,19.080375 C11.16425,18.182875 11.3355,17.230375 11.56425,16.310375 C11.97925,14.637875 12.8005,14.446625 14.26675,13.726625 C14.353,13.684125 14.188,13.140375 14.26675,13.101625 C12.903,13.770375 12.02425,13.936625 11.60925,15.496625 C11.40425,16.267875 11.24925,17.052875 11.04175,17.824125 C10.8105,18.680375 10.34925,19.349125 10.048,20.155375 C9.693,21.105375 9.8605,22.525375 10.0605,23.454125 C10.018,23.255375 10.10425,23.029125 10.0605,22.829125" id="Fill-17" fill="#FEFEFE"></path>
                            <path d="M14.503875,12.054 C15.355125,11.7365 16.195125,11.56275 17.105125,11.7315 C18.077625,11.91025 18.826375,12.43775 19.852625,12.42775 C21.377625,12.414 23.993875,10.5415 24.996375,12.23275 C24.905125,12.08025 25.087625,11.764 24.996375,11.60775 C23.996375,9.92025 21.357625,11.789 19.852625,11.80275 C17.847625,11.8215 16.601375,10.6465 14.503875,11.429 C14.431375,11.45525 14.567625,12.03025 14.503875,12.054" id="Fill-19" fill="#FEFEFE"></path>
                            <path d="M22.833375,16.985625 C23.087125,16.516875 26.543375,11.736875 27.203375,13.936875 C27.203375,13.730625 27.202125,13.526875 27.202125,13.321875 C27.158375,14.144375 26.989625,14.998125 27.038375,15.831875 C27.173375,18.090625 28.732125,19.223125 29.567125,21.123125 L29.567125,20.498125 C29.297125,21.469375 28.622125,22.245625 28.314625,23.246875 C28.255875,23.438125 28.373375,23.683125 28.314625,23.871875 C28.644625,22.798125 29.743375,21.786875 29.569625,20.621875 C29.479625,20.026875 29.012125,19.560625 28.663375,19.091875 C27.780875,17.908125 27.195875,16.751875 27.040875,15.249375 L27.040875,15.874375 C27.098375,15.310625 27.493375,13.925625 27.203375,13.311875 C26.249625,11.288125 23.230875,15.625625 22.833375,16.360625 C22.745875,16.523125 22.919625,16.826875 22.833375,16.985625" id="Fill-21" fill="#FEFEFE"></path>
                            <g id="Group-25" transform="translate(18.750000, 0.171500)">
                                <mask id="mask-6" fill="white">
                                    <use xlink:href="#path-5"></use>
                                </mask>
                                <g id="Clip-24"></g>
                                <path d="M0.994375,10.601875 C1.260625,8.323125 1.516875,5.539375 2.505625,3.444375 C3.910625,0.464375 7.173125,2.108125 9.400625,3.133125 C12.285625,4.459375 14.541875,5.556875 16.241875,8.404375 C17.045625,9.749375 17.739375,11.609375 16.588125,12.859375 C15.589375,13.943125 12.835625,15.089375 11.428125,15.511875 C11.366875,15.529375 11.480625,16.120625 11.428125,16.136875 C13.795625,15.426875 17.299375,14.059375 17.3119413,11.259375 C17.321875,9.209375 16.199375,7.353125 14.848125,5.856875 C13.415625,4.268125 11.740625,3.501875 9.808125,2.674375 C8.224375,1.995625 6.531875,0.874375 4.691875,1.110625 C1.489375,1.521875 1.284375,7.498125 0.994375,9.976875 C0.969375,10.183125 1.018125,10.396875 0.994375,10.601875" id="Fill-23" fill="#FEFEFE" mask="url(#mask-6)"></path>
                            </g>
                            <path d="M29.14625,16.940375 C31.17375,15.617875 37.03375,13.096625 34.00875,10.191625 C32.91875,9.144125 31.14125,8.992875 29.92875,8.089125 C28.50125,7.024125 27.705,5.365375 26.55125,4.045375 C25.6075,2.964125 24.4525,1.615375 22.955,2.396625 C21.8475,2.975375 20.795,5.454125 20.295,6.532875 C20.215,6.706625 20.37375,6.989125 20.295,7.157875 C20.81625,6.032875 21.93875,3.262875 23.2625,2.816625 C24.8425,2.284125 26.255,4.264125 27.08,5.321625 C28.2825,6.862875 29.16375,8.414125 30.94875,9.339125 C32.50625,10.145375 34.31875,10.319125 34.8975,12.234125 L34.8975,11.609125 C34.48,13.501625 30.70875,15.296625 29.14625,16.315375 C29.0475,16.379125 29.23875,16.880375 29.14625,16.940375" id="Fill-26" fill="#FEFEFE"></path>
                            <path d="M19.3775,10.148375 C18.475,7.807125 17.50625,2.540875 14.8675,1.595875 C13.04,0.942125 10.88125,2.718375 9.385,3.585875 C7.3625,4.757125 5.43625,5.952125 4.09375,7.918375 C0.7075,12.885875 5.52875,15.052125 9.94375,17.149625 C9.8675,17.112125 10.02875,16.564625 9.94375,16.524625 C7.995,15.598375 2.9025,13.674625 2.8375,11.034625 C2.76375,8.089625 7.295,5.419625 9.385,4.210875 C11.92625,2.738375 14.70125,0.720875 16.705,4.008375 C17.92375,6.008375 18.5375,8.594625 19.3775,10.773375 C19.3075,10.593375 19.4475,10.330875 19.3775,10.148375" id="Fill-28" fill="#FEFEFE"></path>
                            <path d="M4.642375,13.5255 C4.346125,12.81175 4.153625,12.17675 4.002375,11.41925 C4.002375,11.62425 4.002375,11.828 4.003625,12.033 C4.052375,10.113 6.679875,9.79175 8.062375,9.34425 C9.631125,8.838 10.551125,8.14175 11.456125,6.8055 C12.683625,4.993 14.306125,2.24925 16.888625,4.258 C16.791125,4.18175 16.993625,3.71425 16.888625,3.633 C15.062375,2.213 13.137375,3.44175 12.117375,5.1005 C10.736125,7.348 9.524875,8.233 6.969875,9.038 C3.808625,10.03175 3.508625,11.4155 4.642375,14.1505 C4.568625,13.97425 4.716125,13.7055 4.642375,13.5255" id="Fill-30" fill="#FEFEFE"></path>
                            <g id="Group-34" transform="translate(25.000000, 15.171500)">
                                <mask id="mask-8" fill="white">
                                    <use xlink:href="#path-7"></use>
                                </mask>
                                <g id="Clip-33"></g>
                                <path d="M4.326875,2.293875 C6.470625,2.063875 9.296875,0.705125 11.363125,1.331375 C15.560625,2.602625 13.940625,8.691375 12.909375,11.722625 C12.119375,14.045125 11.278125,17.752625 8.400625,18.315125 C5.576875,18.867625 2.741875,15.818875 1.235625,13.823875 C1.333125,13.955125 1.133125,14.315125 1.235625,14.448875 C3.444375,17.373875 8.028125,21.233875 11.021875,17.048875 C12.759375,14.620125 13.885625,10.187625 14.061875,7.240125 C14.124375,6.197625 14.128125,4.881375 13.916875,3.877625 C12.831875,-1.302375 7.904375,1.285125 4.326875,1.668875 C4.300625,1.671375 4.344375,2.292625 4.326875,2.293875" id="Fill-32" fill="#FEFEFE" mask="url(#mask-8)"></path>
                            </g>
                            <path d="M34.320125,16.595 C38.621375,15.87625 37.306375,20.7075 35.933875,22.835 C35.211375,23.95625 34.532625,24.9 34.472625,26.27875 C34.443875,26.9525 34.640125,27.6075 34.717625,28.26875 C35.370125,33.815 32.567625,33.13125 28.547625,31.59625 C28.612625,31.6225 28.473875,32.19375 28.547625,32.22125 C30.952625,33.14 34.537625,34.79125 34.992625,31.0575 C35.202625,29.33875 34.208875,27.43 34.605125,25.805 C35.187625,23.41375 37.457625,22.04125 37.580125,19.39125 C37.676375,17.32 36.560125,15.59625 34.320125,15.97 C34.281375,15.97625 34.348875,16.59 34.320125,16.595" id="Fill-35" fill="#FEFEFE"></path>
                            <path d="M12.298125,29.44225 C11.230625,31.14975 9.721875,33.186 9.943125,35.32475 C10.399375,39.7485 17.658125,40.27475 21.028125,40.15725 C23.391875,40.07475 27.305625,39.7235 27.821875,36.8035 C27.945625,36.10475 27.658125,35.5285 27.473125,34.88475 C26.858125,32.73975 26.278125,30.681 26.015625,28.4485 C26.039375,28.6535 25.990625,28.86725 26.015625,29.0735 C26.251875,31.08475 28.183125,35.52725 27.295625,37.33475 C26.260625,39.43725 22.425625,39.54225 20.456875,39.54475 C17.534375,39.54975 14.744375,39.156 12.180625,37.66725 C8.678125,35.631 10.581875,32.80975 12.298125,30.06725 C12.393125,29.916 12.205625,29.58975 12.298125,29.44225" id="Fill-37" fill="#FEFEFE"></path>
                            <path d="M12.783875,28.722 C12.023875,30.57075 10.541375,32.667 10.567625,34.722 C10.615125,38.34075 13.461375,37.0945 15.775125,36.92825 C18.228875,36.752 19.910125,37.5245 22.203875,38.107 C23.998875,38.56075 25.826375,37.95075 26.288875,35.93575 C26.651375,34.36075 26.090125,32.50325 26.301375,30.947 C26.330125,30.742 26.273875,30.52575 26.301375,30.322 C25.976375,32.707 27.006375,36.34825 24.522625,37.437 C23.182625,38.02325 22.108875,37.37325 20.841375,36.912 C19.502625,36.42325 18.166375,36.2995 16.746375,36.2995 C14.166375,36.297 11.180125,37.97325 10.570125,34.4095 L10.570125,35.0345 C10.843875,33.0295 12.018875,31.2095 12.783875,29.347 C12.857625,29.167 12.711375,28.8995 12.783875,28.722" id="Fill-39" fill="#FEFEFE"></path>
                            <g id="Group-43" transform="translate(0.000000, 15.171500)">
                                <mask id="mask-10" fill="white">
                                    <use xlink:href="#path-9"></use>
                                </mask>
                                <g id="Clip-42"></g>
                                <path d="M12.3335,13.1355 C11.09225,14.348 8.11475,17.913 6.21725,17.85175 C4.0335,17.78175 1.59475,12.58675 0.90475,10.8655 C-0.289,7.888 -1.00025,1.633 3.416,1.288 C5.15225,1.153 7.95725,2.3605 9.7035,2.853 C9.6535,2.83925 9.76225,2.2455 9.7035,2.228 C7.176,1.5155 2.94725,-0.54575 0.96975,1.88675 C-0.049,3.138 -0.004,4.98175 0.02975,6.5105 C0.11725,10.40675 1.63725,13.53425 4.00225,16.588 C5.16225,18.08425 5.636,18.73425 7.35225,17.933 C9.201,17.068 10.90475,15.15675 12.3335,13.7605 C12.43975,13.65675 12.231,13.23425 12.3335,13.1355" id="Fill-41" fill="#FEFEFE" mask="url(#mask-10)"></path>
                            </g>
                            <path d="M5.055625,16.334375 C3.805625,17.016875 2.498125,16.111875 1.454375,17.268125 C0.940625,17.838125 0.865625,18.648125 0.820625,19.381875 C0.779375,20.064375 0.880625,20.770625 1.100625,21.408125 C1.573125,22.780625 2.606875,23.903125 3.164375,25.258125 C3.820625,26.851875 3.759375,28.503125 4.255625,30.108125 C4.718125,31.604375 5.841875,32.498125 7.456875,32.050625 C8.875625,31.659375 9.681875,30.045625 11.189375,29.938125 C11.209375,29.936875 11.179375,29.313125 11.189375,29.313125 C9.685625,29.420625 8.874375,31.034375 7.456875,31.425625 C5.601875,31.938125 4.541875,30.731875 4.178125,29.040625 C3.819375,27.374375 3.705625,25.793125 2.990625,24.210625 C2.190625,22.439375 1.036875,21.293125 0.823125,19.289375 L0.823125,19.914375 C0.960625,18.838125 1.124375,17.646875 2.320625,17.245625 C3.301875,16.916875 4.058125,17.504375 5.055625,16.959375 C5.146875,16.909375 4.971875,16.380625 5.055625,16.334375" id="Fill-44" fill="#FEFEFE"></path>
                        </g>
                        <circle id="Oval" stroke="#FFFFFF" stroke-width="0.5" cx="20" cy="21.25" r="2.25"></circle>
                    </g>
                </g>
            </g>
        </g>
    </g>
</svg>